<?xml version="1.0" standalone="no"?>
<!DOCTYPE svg PUBLIC "-//W3C//DTD SVG 20010904//EN"
 "http://www.w3.org/TR/2001/REC-SVG-20010904/DTD/svg10.dtd">
<svg version="1.0" xmlns="http://www.w3.org/2000/svg"
 width="293.000000pt" height="294.000000pt" viewBox="0 0 293.000000 294.000000"
 preserveAspectRatio="xMidYMid meet">
<metadata>
Created by potrace 1.16, written by Peter Selinger 2001-2019
</metadata>
<g transform="translate(0.000000,294.000000) scale(0.100000,-0.100000)"
fill="#000000" stroke="none">
<path d="M1305 2884 c-349 -53 -600 -177 -836 -413 -211 -212 -337 -446 -396
-738 -27 -135 -24 -414 6 -553 61 -284 197 -527 410 -732 213 -205 456 -330
739 -379 734 -125 1442 341 1618 1065 53 221 53 451 -1 673 -127 526 -554 939
-1090 1055 -88 19 -377 33 -450 22z m165 -33 c0 -5 -5 -11 -11 -13 -7 -2 -7
-32 -2 -93 7 -80 10 -90 29 -93 17 -2 29 14 70 92 27 53 52 96 56 96 4 0 14
-26 23 -57 9 -32 22 -78 29 -103 10 -33 19 -46 34 -48 17 -3 23 4 32 40 6 24
16 60 23 81 8 30 8 43 -2 59 -11 17 -11 20 1 16 7 -3 39 -13 70 -22 88 -25
115 -89 52 -118 -26 -12 -26 -19 2 -85 7 -18 19 -33 26 -33 7 0 27 35 45 78
24 60 29 80 20 91 -10 12 -9 13 8 7 11 -4 32 -13 48 -18 26 -10 39 -31 15 -26
-6 2 -27 -32 -45 -76 -28 -63 -32 -80 -21 -87 20 -13 21 -13 107 51 45 33 85
60 89 60 5 0 2 -45 -6 -101 -13 -89 -13 -103 0 -116 13 -13 22 -7 72 50 41 48
54 69 49 83 -6 16 -3 15 24 -4 l31 -22 -5 -77 -6 -77 32 37 c25 28 31 42 26
59 l-7 23 26 -25 c24 -22 25 -25 9 -31 -10 -4 -43 -36 -73 -73 -30 -36 -58
-66 -61 -66 -5 0 -4 47 4 163 1 20 0 36 -4 35 -21 -8 -80 -94 -76 -110 7 -24
-5 -23 -28 2 -10 11 -38 31 -61 45 -42 25 -59 43 -30 32 9 -4 16 3 20 16 3 12
4 22 3 22 -1 1 -14 8 -28 17 -23 14 -29 15 -45 4 -16 -12 -17 -16 -4 -32 8 -9
11 -15 5 -13 -5 3 -37 17 -70 32 -33 16 -71 33 -85 39 -14 6 -31 13 -39 17 -8
4 -21 31 -29 59 -8 29 -18 52 -22 52 -14 0 -22 -71 -9 -86 14 -17 16 -17 -51
1 -30 8 -72 15 -92 15 -36 0 -52 14 -27 22 7 2 9 13 5 26 -6 17 -15 22 -41 22
-35 0 -53 -23 -35 -45 8 -10 -7 -13 -72 -13 -46 0 -77 3 -70 5 13 5 16 64 5
127 -6 40 -6 40 -29 -43 -21 -77 -30 -100 -36 -90 -2 2 -20 39 -42 82 -21 43
-39 77 -41 75 -1 -2 2 -38 8 -80 7 -61 13 -78 26 -79 17 -1 -23 -16 -48 -18
-11 -1 -11 2 -1 13 17 22 3 177 -18 194 -14 11 -14 12 4 12 10 0 29 3 41 6 20
6 27 -2 55 -62 l32 -68 9 34 c27 112 26 109 60 113 17 2 35 5 40 5 4 1 7 -2 7
-7z m-389 -101 c27 -15 49 -62 49 -105 0 -28 -7 -44 -31 -66 -17 -16 -36 -29
-43 -29 -6 0 -40 -14 -76 -32 -36 -18 -69 -34 -74 -36 -5 -3 -6 1 -2 7 9 13
-11 41 -28 41 -6 0 -21 -8 -34 -18 -25 -20 -22 -48 6 -54 12 -3 8 -9 -16 -22
-33 -17 -34 -17 -28 1 3 10 0 64 -8 118 -8 55 -12 102 -10 104 2 2 42 -27 89
-64 81 -63 115 -76 115 -43 0 27 -59 163 -69 161 -27 -7 -7 16 27 30 44 18
106 21 133 7z m671 -223 c350 -92 627 -348 752 -695 77 -215 75 -506 -4 -725
-124 -340 -392 -586 -741 -682 -180 -50 -422 -45 -604 12 -556 174 -878 770
-720 1330 114 403 439 700 852 778 121 23 341 14 465 -18z m-1037 -9 c37 -29
58 -80 45 -112 -11 -31 -185 -207 -176 -179 5 17 -6 32 -56 77 -40 36 -69 55
-80 52 -27 -6 -22 7 19 45 20 18 33 27 30 18 -4 -11 16 -36 65 -80 66 -59 71
-62 84 -44 8 10 14 21 14 25 0 16 -115 140 -127 136 -28 -11 -10 11 38 47 60
43 102 48 144 15z m1780 -142 c36 -16 65 -59 65 -100 0 -36 -54 -94 -95 -102
-42 -8 -90 17 -111 57 -26 51 2 119 59 144 40 18 41 18 82 1z m-2045 -87 c12
-9 11 -10 -9 -6 -34 8 -71 -9 -71 -32 0 -31 14 -33 75 -9 l56 21 27 -20 c37
-27 40 -68 9 -102 -14 -14 -34 -42 -46 -61 -18 -31 -28 -36 -78 -45 l-58 -11
32 -17 c17 -9 39 -14 48 -11 13 5 12 -2 -7 -41 -17 -34 -24 -42 -26 -28 -3 23
-152 100 -171 89 -16 -10 -14 -1 10 47 27 52 58 87 79 87 25 0 60 -29 60 -51
0 -17 5 -19 43 -13 71 10 74 12 42 39 l-30 24 37 -6 c42 -6 68 8 68 39 0 27
-22 32 -65 14 -48 -21 -84 -20 -107 1 -26 24 -22 63 10 94 27 27 35 26 72 -2z
m2223 -189 c20 -16 64 -108 54 -115 -7 -6 -46 -25 -51 -25 -3 0 3 13 12 30 16
27 16 32 1 57 -13 23 -22 28 -53 27 -38 -1 -80 -25 -100 -56 -7 -12 -6 -25 2
-43 12 -26 14 -26 35 -12 12 9 21 20 20 26 -6 25 15 8 30 -24 9 -20 17 -37 17
-38 0 -1 -10 -2 -22 -3 -13 0 -30 -4 -40 -8 -24 -11 -68 57 -68 107 0 81 99
127 163 77z m-2423 -160 c12 -8 11 -10 -7 -10 -22 0 -53 -33 -53 -56 0 -13 68
-29 78 -19 4 4 -4 15 -18 25 -28 22 -18 25 31 9 63 -20 65 -22 35 -28 -17 -3
-30 -10 -30 -15 -1 -12 54 -28 72 -21 17 6 15 60 -3 75 -26 22 -16 31 16 14
21 -10 29 -21 26 -32 -3 -9 -13 -45 -22 -79 -10 -35 -22 -63 -27 -63 -5 0 -7
4 -3 9 8 13 -4 19 -92 45 -60 18 -81 21 -92 12 -12 -9 -14 -8 -9 5 3 8 14 43
23 77 15 51 21 62 39 62 11 0 28 -5 36 -10z m2435 -76 c49 -8 91 -16 93 -18 1
-2 -31 -30 -72 -62 -54 -42 -75 -66 -76 -82 0 -22 1 -23 78 -16 52 4 81 11 90
22 10 13 12 13 12 1 0 -8 3 -32 6 -54 4 -31 3 -36 -5 -23 -8 12 -21 15 -44 13
-17 -3 -53 -7 -79 -10 -42 -5 -48 -9 -48 -30 0 -26 24 -55 46 -55 8 0 14 -5
14 -11 0 -6 -7 -8 -16 -5 -9 3 -24 6 -34 6 -15 0 -20 11 -25 58 -9 77 -22 153
-31 177 -7 17 -6 18 8 7 12 -10 18 -10 28 2 18 22 3 76 -21 76 -11 0 -19 -7
-19 -16 0 -23 -17 -8 -23 21 -3 21 -1 25 12 20 9 -4 56 -13 106 -21z m-2345
-471 c0 -4 -33 -41 -72 -81 -59 -60 -68 -73 -48 -69 14 3 46 9 73 12 30 5 47
12 47 21 0 8 5 14 10 14 6 0 10 -17 10 -37 0 -27 -3 -34 -10 -23 -7 12 -21 13
-92 2 -52 -7 -87 -18 -95 -28 -9 -13 -12 -10 -18 17 -6 29 -2 36 51 91 38 38
52 58 39 55 -11 -3 -37 -8 -57 -12 -27 -4 -38 -11 -38 -23 0 -15 -2 -15 -10
-2 -5 8 -10 25 -10 38 0 18 3 20 17 12 13 -8 42 -7 103 3 47 8 88 15 93 16 4
1 7 -2 7 -6z m2376 -79 c63 -14 78 -14 85 -3 16 27 17 3 1 -68 -15 -70 -17
-73 -44 -73 -15 0 -28 5 -28 10 0 6 9 10 19 10 12 0 23 11 29 29 9 26 8 30
-11 35 -39 10 -57 7 -51 -9 4 -8 12 -15 20 -15 8 0 14 -5 14 -10 0 -10 -20 -7
-80 11 -14 4 -18 8 -9 8 9 1 22 7 28 15 9 11 7 15 -11 20 -48 12 -58 8 -58
-26 0 -17 8 -40 18 -51 16 -19 16 -19 -8 -12 -14 4 -28 10 -32 14 -3 3 1 41
10 84 11 50 19 72 24 63 5 -8 42 -22 84 -32z m-60 -209 c32 -41 62 -75 65 -75
4 0 10 12 13 26 5 18 2 32 -10 45 -23 26 -14 32 15 10 l24 -18 -24 -67 c-13
-36 -26 -66 -29 -66 -3 1 -32 37 -65 81 -57 77 -59 79 -72 57 -18 -33 -16 -52
9 -83 12 -15 18 -26 12 -24 -46 22 -64 34 -61 43 2 6 15 41 28 79 13 37 27 67
30 67 3 0 33 -34 65 -75z m-2267 39 c26 -33 27 -76 4 -96 -10 -9 -45 -25 -78
-37 -33 -12 -65 -29 -72 -38 -10 -13 -14 -10 -27 22 -20 46 -21 61 -3 47 8 -7
34 -2 87 17 65 24 75 31 78 54 5 43 -26 51 -100 26 -69 -24 -91 -37 -82 -50 3
-5 1 -9 -3 -9 -5 0 -14 13 -20 30 -11 28 -10 30 10 25 12 -3 45 3 72 14 71 28
109 27 134 -5z m365 -568 c18 -8 41 -24 50 -37 9 -13 20 -24 25 -24 11 0 111
-55 111 -61 0 -3 -8 -4 -17 -2 -13 2 -28 -17 -57 -71 -38 -73 -38 -73 -18 -93
32 -33 58 -15 98 65 23 44 32 73 25 75 -6 2 -11 8 -11 13 0 5 16 1 36 -8 31
-15 33 -18 15 -25 -11 -4 -34 -34 -51 -67 -46 -93 -83 -108 -144 -60 -35 28
-33 58 10 136 26 45 33 68 26 75 -8 8 -18 2 -36 -18 l-25 -29 5 35 c7 46 -30
86 -71 76 -32 -8 -85 -80 -85 -117 0 -26 22 -59 40 -59 12 0 41 50 35 60 -12
19 11 9 45 -21 19 -16 28 -28 19 -27 -9 2 -25 -8 -36 -21 -25 -31 -63 -23
-110 24 -25 25 -33 41 -33 70 0 47 25 90 64 109 39 19 48 19 90 2z m1529 -46
c52 -28 97 -47 100 -43 4 3 7 2 7 -3 0 -5 -16 -21 -34 -36 -37 -29 -56 -37
-38 -15 8 10 6 16 -9 25 -16 10 -24 9 -44 -5 -29 -21 -30 -59 -2 -57 24 2 21
-11 -8 -30 -24 -16 -25 -15 -25 2 0 10 -13 62 -29 115 -16 54 -25 97 -20 97 5
0 51 -23 102 -50z m-249 -65 c-6 -15 66 -148 86 -160 5 -3 21 5 35 19 19 19
24 32 19 51 -9 36 9 31 24 -7 6 -17 11 -33 9 -34 -18 -15 -141 -84 -150 -84
-8 0 -7 3 2 9 12 8 6 24 -31 88 -29 49 -52 77 -62 77 -26 -3 -18 10 22 32 46
27 53 28 46 9z m-74 -149 c44 -43 79 -79 78 -80 -23 -12 -80 -36 -85 -36 -3 0
0 6 6 13 8 10 7 18 -2 31 -10 14 -17 15 -45 5 -25 -8 -32 -17 -32 -36 0 -18 4
-24 15 -19 8 3 15 1 15 -3 0 -5 -14 -14 -31 -20 -26 -9 -30 -8 -25 4 3 8 6 62
7 120 1 58 5 105 10 103 4 -2 44 -38 89 -82z m-838 -28 c3 -57 9 -111 13 -122
7 -16 5 -17 -16 -11 -52 16 -74 28 -61 32 24 9 13 48 -18 60 -33 13 -57 -4
-46 -33 5 -12 2 -15 -10 -10 -8 3 -22 6 -30 6 -8 0 -14 5 -14 10 0 6 6 10 13
10 7 0 44 36 83 80 38 44 72 80 75 80 4 0 9 -46 11 -102z m178 51 c51 -11 61
-26 41 -57 -6 -10 -10 -7 -15 12 -4 16 -13 26 -25 26 -15 0 -21 -15 -36 -87
-12 -61 -14 -88 -6 -91 6 -2 11 -7 11 -11 0 -4 -22 -3 -50 3 -27 5 -50 14 -50
18 0 4 5 7 12 5 12 -2 32 60 44 140 6 39 4 43 -15 43 -11 0 -25 -9 -31 -21
-15 -27 -23 -18 -14 16 7 30 13 30 134 4z m489 11 c-15 -9 -15 -17 -2 -92 8
-46 22 -88 30 -95 11 -9 5 -13 -34 -21 -49 -11 -68 -7 -44 7 11 7 11 22 -1 87
l-14 79 -18 -92 c-10 -51 -21 -93 -25 -93 -4 0 -28 35 -55 78 -42 68 -47 73
-42 42 3 -19 8 -54 12 -77 4 -27 12 -43 20 -43 8 0 14 -4 14 -10 0 -5 -9 -10
-19 -10 -11 0 -28 -3 -38 -6 -16 -6 -17 -5 -2 10 14 15 14 25 0 103 -9 48 -22
88 -29 91 -7 2 -12 -6 -12 -22 0 -14 -4 -26 -10 -26 -5 0 -10 7 -10 15 0 15
-30 35 -53 35 -10 0 -16 -13 -19 -40 -2 -29 0 -40 10 -40 8 0 16 9 19 20 3 11
10 20 15 20 6 0 7 -7 4 -16 -3 -9 -6 -34 -6 -57 0 -40 -1 -41 -13 -18 -21 41
-37 37 -37 -8 0 -40 1 -41 34 -41 26 0 40 7 56 28 l21 27 -5 -25 c-3 -14 -6
-31 -6 -37 0 -10 -25 -13 -92 -13 -68 1 -88 3 -75 11 14 8 17 25 17 97 0 54
-5 93 -12 100 -9 9 18 11 117 8 l129 -4 35 -58 36 -57 14 71 c14 75 18 79 76
81 23 0 26 -2 14 -9z"/>
<path d="M1390 2514 c-14 -2 -56 -9 -95 -15 -93 -15 -220 -59 -303 -104 -260
-143 -442 -376 -519 -663 -23 -85 -26 -116 -26 -257 0 -141 3 -172 25 -257 15
-53 45 -137 68 -186 l42 -90 37 5 c20 3 64 14 99 23 l63 18 10 -25 c18 -48 13
-53 -48 -53 -31 0 -54 -3 -50 -6 3 -3 31 -6 61 -5 53 0 56 -1 56 -25 0 -25 -3
-28 -54 -39 -15 -3 -26 -8 -23 -11 2 -3 23 -1 46 5 51 11 62 -1 16 -19 -19 -8
-35 -17 -35 -22 0 -13 13 -10 40 9 13 9 53 22 89 28 47 7 67 15 69 26 2 11 -7
18 -28 23 -29 5 -31 8 -28 43 l3 38 85 27 c112 37 162 44 240 37 48 -4 59 -8
43 -13 -13 -5 -20 -12 -17 -17 3 -5 1 -9 -5 -9 -5 0 -13 4 -16 10 -11 17 -80
11 -141 -12 -61 -23 -59 -38 3 -17 20 6 72 12 116 12 43 0 73 3 67 7 -9 5 -1
13 21 24 70 32 191 47 205 25 4 -7 18 -8 38 -4 17 4 74 9 126 10 52 2 114 7
138 10 70 10 43 -22 -33 -38 -14 -3 -12 -5 8 -6 28 -1 87 26 87 41 0 3 17 4
38 1 l37 -6 -24 27 c-26 28 -42 36 -21 11 7 -9 10 -18 7 -21 -9 -9 -46 38 -58
75 -14 43 -33 71 -114 171 -34 41 -80 102 -103 135 -73 106 -57 99 -157 65
-49 -17 -92 -27 -96 -23 -4 5 -16 35 -27 68 -19 54 -24 61 -54 67 -98 20 -130
28 -140 34 -6 4 -8 3 -5 -3 4 -6 39 -18 79 -27 109 -26 109 -26 34 -53 -38
-14 -91 -38 -118 -55 -27 -17 -51 -28 -54 -25 -3 2 -12 41 -21 84 -18 85 -12
133 22 177 13 18 17 16 67 -28 29 -25 62 -46 73 -46 16 1 13 4 -10 15 -16 7
-24 14 -17 14 7 1 10 6 7 12 -4 6 -13 8 -19 6 -7 -3 -30 10 -51 27 -30 25 -37
37 -31 52 8 18 8 18 16 -2 5 -12 34 -35 65 -53 30 -17 53 -36 50 -41 -3 -6 5
-10 19 -10 13 0 32 -3 42 -7 12 -4 15 -3 10 5 -4 7 -13 12 -20 12 -26 0 -155
85 -156 102 0 22 101 148 176 219 90 85 112 94 229 95 132 1 135 2 135 19 0 9
7 18 15 21 8 4 15 10 15 16 0 5 -4 7 -9 4 -12 -8 -19 60 -8 79 11 20 -3 19
-32 -2 -17 -11 -22 -12 -19 -3 8 24 52 50 93 57 22 3 50 15 62 25 l21 20 16
-30 c11 -20 30 -36 61 -48 50 -19 92 -61 101 -102 3 -15 10 -37 16 -49 12 -25
4 -55 -14 -51 -7 1 -23 -3 -36 -10 -12 -7 -26 -10 -31 -7 -5 3 -16 -2 -25 -11
-9 -8 -21 -12 -27 -8 -8 5 -9 3 -4 -5 4 -8 -5 -26 -26 -47 -36 -37 -59 -44
-60 -16 0 11 -2 12 -6 4 -4 -10 -8 -10 -19 -1 -12 10 -16 8 -21 -10 -10 -38
-45 -23 -63 26 -16 44 -40 77 -40 56 0 -7 4 -14 8 -17 17 -10 35 -112 24 -133
-7 -12 -9 -68 -5 -154 l5 -134 38 -55 c43 -63 77 -128 114 -219 14 -35 37 -78
50 -96 25 -32 96 -82 96 -67 0 5 -16 17 -36 29 -35 20 -36 21 -16 32 17 9 23
7 36 -11 9 -12 16 -18 16 -14 0 5 -7 18 -16 27 -13 14 -21 16 -36 8 -30 -16
-51 10 -88 104 -37 94 -81 176 -122 228 -27 34 -29 40 -26 120 3 82 3 84 29
87 60 7 86 -79 54 -183 -14 -48 -14 -49 13 -79 15 -17 40 -64 56 -103 16 -40
42 -86 59 -103 26 -26 28 -32 16 -48 -13 -16 -13 -16 7 0 28 24 42 22 56 -7
14 -31 22 -31 36 0 24 52 63 23 61 -45 -1 -23 -2 -22 -15 9 l-15 34 -22 -21
c-17 -18 -21 -32 -19 -74 2 -55 -12 -97 -22 -68 -3 8 -6 24 -8 35 -2 12 -12
21 -28 23 l-24 4 29 -39 c16 -21 36 -43 45 -50 32 -26 -12 -13 -48 14 l-37 27
29 -32 c31 -34 76 -44 76 -17 0 18 5 18 30 5 21 -11 166 -43 190 -41 8 0 55 4
104 8 l88 8 20 50 c126 316 91 679 -91 956 -156 236 -392 397 -662 454 -69 15
-256 27 -299 19z m-53 -961 c3 -10 14 -36 24 -59 16 -35 69 -271 69 -309 0 -7
-11 -27 -25 -44 -19 -22 -38 -32 -73 -37 -26 -3 -72 -17 -103 -30 -31 -12
-112 -39 -180 -59 -122 -36 -169 -63 -169 -95 0 -25 28 -58 53 -62 15 -2 4 -8
-32 -17 -50 -13 -55 -12 -68 5 -7 10 -13 29 -13 43 0 13 -7 48 -16 77 -23 72
-18 81 58 86 61 4 68 7 188 91 128 90 163 108 183 88 24 -24 26 -9 3 22 -14
19 -39 65 -54 103 -23 56 -35 72 -62 85 -21 10 -29 19 -21 23 6 4 18 3 26 -4
11 -9 12 -7 8 9 -5 22 36 47 132 82 62 23 64 23 72 2z m292 -130 l52 -76 -27
-95 -27 -95 36 -33 c22 -21 51 -36 75 -40 42 -7 70 -20 61 -28 -3 -3 -60 -7
-126 -9 -66 -2 -125 -7 -132 -11 -17 -11 -41 12 -41 40 0 13 9 47 21 76 18 46
35 191 39 331 0 31 15 18 69 -60z"/>
</g>
</svg>
